<svg width="513.3875px" height="122px" xmlns="http://www.w3.org/2000/svg" viewBox="-6.693750000000023 14 513.3875 122" style="background: rgba(0, 0, 0, 0);" preserveAspectRatio="xMidYMid"><defs><linearGradient id="editing-outline-gradient" x1="-0.41354545764260087" x2="1.4135454576426008" y1="0.09326335692419985" y2="0.9067366430758002"><stop offset="0" stop-color="#ee4208"></stop><stop offset="1" stop-color="#4139ff"></stop></linearGradient><filter id="editing-outline" x="-100%" y="-100%" width="300%" height="300%"><feMorphology in="SourceGraphic" operator="dilate" radius="1" result="outline"></feMorphology><feComposite operator="out" in="outline" in2="SourceAlpha"></feComposite></filter></defs><g filter="url(#editing-outline)"><g transform="translate(69.52382481098175, 98.68000030517578)"><path d="M6.53 0L-0.83 0L10.75-42.24L24.13-42.24L27.07-18.11L38.98-42.24L50.18-42.24L51.33-10.62L51.33-10.62Q51.58-4.35 54.66-2.43L54.66-2.43L54.66-2.43Q53.95-1.15 51.90 0.06L51.90 0.06L51.90 0.06Q49.86 1.28 47.14 1.28L47.14 1.28L47.14 1.28Q44.42 1.28 42.82 0.51L42.82 0.51L42.82 0.51Q41.22-0.26 40.32-1.54L40.32-1.54L40.32-1.54Q38.72-3.84 38.72-8.26L38.72-8.26L38.72-28.03L26.11 0L18.18 0L13.70-28.74L6.53 0ZM83.33-10.82L83.33-10.82L83.33-10.82Q84.93-9.73 84.93-7.33L84.93-7.33L84.93-7.33Q84.93-4.93 83.71-3.39L83.71-3.39L83.71-3.39Q82.50-1.86 80.51-0.83L80.51-0.83L80.51-0.83Q76.42 1.28 72 1.28L72 1.28L72 1.28Q67.58 1.28 64.99 0.32L64.99 0.32L64.99 0.32Q62.40-0.64 60.67-2.43L60.67-2.43L60.67-2.43Q57.28-5.82 57.28-12.03L57.28-12.03L57.28-12.03Q57.28-21.70 62.53-27.58L62.53-27.58L62.53-27.58Q68.16-33.92 77.95-33.92L77.95-33.92L77.95-33.92Q84.03-33.92 87.04-31.36L87.04-31.36L87.04-31.36Q89.28-29.44 89.28-26.30L89.28-26.30L89.28-26.30Q89.28-15.04 69.82-15.04L69.82-15.04L69.82-15.04Q69.57-13.38 69.57-11.97L69.57-11.97L69.57-11.97Q69.57-9.02 70.88-7.90L70.88-7.90L70.88-7.90Q72.19-6.78 74.62-6.78L74.62-6.78L74.62-6.78Q77.06-6.78 79.65-7.90L79.65-7.90L79.65-7.90Q82.24-9.02 83.33-10.82ZM70.27-17.79L70.27-17.79L70.27-17.79Q74.82-17.79 77.44-20.61L77.44-20.61L77.44-20.61Q80.06-23.30 80.06-27.58L80.06-27.58L80.06-27.58Q80.06-29.06 79.52-29.86L79.52-29.86L79.52-29.86Q78.98-30.66 77.89-30.66L77.89-30.66L77.89-30.66Q76.80-30.66 75.87-30.24L75.87-30.24L75.87-30.24Q74.94-29.82 73.98-28.42L73.98-28.42L73.98-28.42Q71.62-25.22 70.27-17.79ZM111.62-33.92L111.62-33.92L111.62-33.92Q113.92-33.92 115.71-33.41L115.71-33.41L115.71-33.41Q115.78-33.66 115.90-34.37L115.90-34.37L116.22-36.35L116.22-36.35Q116.48-37.63 116.86-39.74L116.86-39.74L117.89-44.80L130.62-46.08L123.52-8.96L123.52-8.96Q123.46-8.58 123.46-7.94L123.46-7.94L123.46-6.91L123.46-6.91Q123.46-5.50 124.16-4.45L124.16-4.45L124.16-4.45Q124.86-3.39 126.02-3.39L126.02-3.39L126.02-3.39Q124.74-0.38 120.83 0.90L120.83 0.90L120.83 0.90Q119.49 1.28 117.60 1.28L117.60 1.28L117.60 1.28Q115.71 1.28 113.98 0.29L113.98 0.29L113.98 0.29Q112.26-0.70 111.74-2.37L111.74-2.37L111.74-2.37Q110.72-0.70 108.67 0.29L108.67 0.29L108.67 0.29Q106.62 1.28 103.65 1.28L103.65 1.28L103.65 1.28Q100.67 1.28 98.21 0.51L98.21 0.51L98.21 0.51Q95.74-0.26 94.21-1.92L94.21-1.92L94.21-1.92Q91.39-5.18 91.39-12.61L91.39-12.61L91.39-12.61Q91.39-22.21 97.02-28.03L97.02-28.03L97.02-28.03Q102.66-33.92 111.62-33.92ZM111.17-30.08L111.17-30.08L111.17-30.08Q108.80-30.08 107.52-27.52L107.52-27.52L107.52-27.52Q106.24-24.96 104.93-18.62L104.93-18.62L104.93-18.62Q103.62-12.29 103.62-6.59L103.62-6.59L103.62-6.59Q103.62-2.69 105.92-2.69L105.92-2.69L105.92-2.69Q107.97-2.69 109.41-4.74L109.41-4.74L109.41-4.74Q110.85-6.78 111.42-10.18L111.42-10.18L114.88-28.93L114.88-28.93Q113.54-30.08 111.17-30.08ZM134.24-1.92L134.24-1.92L134.24-1.92Q132.74-3.58 132.06-6.21L132.06-6.21L132.06-6.21Q131.39-8.83 131.39-13.12L131.39-13.12L131.39-13.12Q131.39-17.41 132.86-21.31L132.86-21.31L132.86-21.31Q134.34-25.22 137.02-28.03L137.02-28.03L137.02-28.03Q142.53-33.92 151.62-33.92L151.62-33.92L151.62-33.92Q154.88-33.92 157.25-32.83L157.25-32.83L168.19-33.92L163.46-8.96L163.46-8.96Q163.26-8.19 163.26-6.78L163.26-6.78L163.26-6.78Q163.26-5.38 164.13-4.48L164.13-4.48L164.13-4.48Q164.99-3.58 166.27-3.46L166.27-3.46L166.27-3.46Q165.63-1.28 163.30 0L163.30 0L163.30 0Q160.96 1.28 158.34 1.28L158.34 1.28L158.34 1.28Q155.71 1.28 153.95 0.29L153.95 0.29L153.95 0.29Q152.19-0.70 151.68-2.37L151.68-2.37L151.68-2.37Q150.66-0.77 148.48 0.26L148.48 0.26L148.48 0.26Q146.30 1.28 143.39 1.28L143.39 1.28L143.39 1.28Q140.48 1.28 138.11 0.51L138.11 0.51L138.11 0.51Q135.74-0.26 134.24-1.92ZM147.74-27.90L147.74-27.90L147.74-27.90Q147.01-26.75 146.37-24.80L146.37-24.80L146.37-24.80Q145.73-22.85 144.67-17.63L144.67-17.63L144.67-17.63Q143.62-12.42 143.62-8.70L143.62-8.70L143.62-8.70Q143.62-4.99 144.19-3.90L144.19-3.90L144.19-3.90Q144.77-2.82 145.79-2.82L145.79-2.82L145.79-2.82Q147.84-2.82 149.34-4.77L149.34-4.77L149.34-4.77Q150.85-6.72 151.42-10.18L151.42-10.18L154.82-28.93L154.82-28.93Q153.47-30.08 151.90-30.08L151.90-30.08L151.90-30.08Q150.34-30.08 149.41-29.57L149.41-29.57L149.41-29.57Q148.48-29.06 147.74-27.90ZM186.94-3.52L186.94-3.52L186.94-3.52Q184.96 1.28 178.62 1.28L178.62 1.28L178.62 1.28Q175.42 1.28 173.38-0.96L173.38-0.96L173.38-0.96Q171.71-2.82 171.71-4.93L171.71-4.93L171.71-4.93Q171.71-9.73 173.95-20.22L173.95-20.22L178.62-44.80L191.62-46.08L185.41-13.70L185.41-13.70Q184.32-8.96 184.32-7.30L184.32-7.30L184.32-7.30Q184.32-3.65 186.94-3.52ZM193.98-39.68L193.98-39.68L193.98-39.68Q195.84-43.52 200.99-43.52L200.99-43.52L200.99-43.52Q206.14-43.52 208.54-40.54L208.54-40.54L208.54-40.54Q210.94-37.57 210.94-30.72L210.94-30.72L210.94-7.87L226.50-42.18L234.11-42.18L214.21 0L199.23 0L197.31-30.72L197.31-30.72Q197.12-34.11 196.19-36.42L196.19-36.42L196.19-36.42Q195.26-38.72 193.98-39.68ZM256.45-10.82L256.45-10.82L256.45-10.82Q258.05-9.73 258.05-7.33L258.05-7.33L258.05-7.33Q258.05-4.93 256.83-3.39L256.83-3.39L256.83-3.39Q255.62-1.86 253.63-0.83L253.63-0.83L253.63-0.83Q249.54 1.28 245.12 1.28L245.12 1.28L245.12 1.28Q240.70 1.28 238.11 0.32L238.11 0.32L238.11 0.32Q235.52-0.64 233.79-2.43L233.79-2.43L233.79-2.43Q230.40-5.82 230.40-12.03L230.40-12.03L230.40-12.03Q230.40-21.70 235.65-27.58L235.65-27.58L235.65-27.58Q241.28-33.92 251.07-33.92L251.07-33.92L251.07-33.92Q257.15-33.92 260.16-31.36L260.16-31.36L260.16-31.36Q262.40-29.44 262.40-26.30L262.40-26.30L262.40-26.30Q262.40-15.04 242.94-15.04L242.94-15.04L242.94-15.04Q242.69-13.38 242.69-11.97L242.69-11.97L242.69-11.97Q242.69-9.02 244-7.90L244-7.90L244-7.90Q245.31-6.78 247.74-6.78L247.74-6.78L247.74-6.78Q250.18-6.78 252.77-7.90L252.77-7.90L252.77-7.90Q255.36-9.02 256.45-10.82ZM243.39-17.79L243.39-17.79L243.39-17.79Q247.94-17.79 250.56-20.61L250.56-20.61L250.56-20.61Q253.18-23.30 253.18-27.58L253.18-27.58L253.18-27.58Q253.18-29.06 252.64-29.86L252.64-29.86L252.64-29.86Q252.10-30.66 251.01-30.66L251.01-30.66L251.01-30.66Q249.92-30.66 248.99-30.24L248.99-30.24L248.99-30.24Q248.06-29.82 247.10-28.42L247.10-28.42L247.10-28.42Q244.74-25.22 243.39-17.79ZM284.61-17.98L284.61-17.98L284.61-17.98Q286.91-22.08 286.91-26.24L286.91-26.24L286.91-26.24Q286.91-28.99 284.93-28.99L284.93-28.99L284.93-28.99Q283.39-28.99 281.79-26.37L281.79-26.37L281.79-26.37Q280.13-23.74 279.62-20.35L279.62-20.35L276.29 0L263.04 1.28L269.57-32.64L280.13-33.92L278.98-27.46L278.98-27.46Q282.11-33.92 289.15-33.92L289.15-33.92L289.15-33.92Q292.86-33.92 294.88-32L294.88-32L294.88-32Q296.90-30.08 296.90-26.14L296.90-26.14L296.90-26.14Q296.90-22.21 294.30-19.71L294.30-19.71L294.30-19.71Q291.71-17.22 287.30-17.22L287.30-17.22L287.30-17.22Q285.38-17.22 284.61-17.98ZM317.06-22.46L317.06-22.46L317.06-22.46Q317.95-24.83 317.95-26.88L317.95-26.88L317.95-26.88Q317.95-30.66 314.88-30.66L314.88-30.66L314.88-30.66Q313.28-30.66 311.97-29.22L311.97-29.22L311.97-29.22Q310.66-27.78 310.66-25.98L310.66-25.98L310.66-25.98Q310.66-24.70 311.68-23.68L311.68-23.68L311.68-23.68Q313.15-22.27 316.93-19.97L316.93-19.97L316.93-19.97Q320.70-17.66 322.14-15.78L322.14-15.78L322.14-15.78Q323.58-13.89 323.58-11.30L323.58-11.30L323.58-11.30Q323.58-8.70 322.34-6.34L322.34-6.34L322.34-6.34Q321.09-3.97 318.85-2.30L318.85-2.30L318.85-2.30Q314.05 1.28 306.37 1.28L306.37 1.28L306.37 1.28Q302.21 1.28 299.01-0.90L299.01-0.90L299.01-0.90Q295.81-3.01 295.81-5.50L295.81-5.50L295.81-5.50Q295.81-8 297.63-9.47L297.63-9.47L297.63-9.47Q299.46-10.94 302.14-10.94L302.14-10.94L302.14-10.94Q304.83-10.94 306.50-9.92L306.50-9.92L306.50-9.92Q305.66-7.81 305.66-6.40L305.66-6.40L305.66-6.40Q305.66-2.18 309.25-2.18L309.25-2.18L309.25-2.18Q310.78-2.18 311.81-3.14L311.81-3.14L311.81-3.14Q312.83-4.10 312.83-5.76L312.83-5.76L312.83-5.76Q312.83-9.02 307.33-12.48L307.33-12.48L307.33-12.48Q302.85-15.42 301.82-16.58L301.82-16.58L301.82-16.58Q300.10-18.62 300.10-21.18L300.10-21.18L300.10-21.18Q300.10-23.74 301.31-26.18L301.31-26.18L301.31-26.18Q302.53-28.61 304.77-30.34L304.77-30.34L304.77-30.34Q309.44-33.92 317.57-33.92L317.57-33.92L317.57-33.92Q321.73-33.92 324.19-32.26L324.19-32.26L324.19-32.26Q326.66-30.59 326.66-27.78L326.66-27.78L326.66-27.78Q326.66-24.96 324.96-23.36L324.96-23.36L324.96-23.36Q323.26-21.76 320.19-21.76L320.19-21.76L320.19-21.76Q318.08-21.76 317.06-22.46ZM354.94-10.82L354.94-10.82L354.94-10.82Q356.54-9.73 356.54-7.33L356.54-7.33L356.54-7.33Q356.54-4.93 355.33-3.39L355.33-3.39L355.33-3.39Q354.11-1.86 352.13-0.83L352.13-0.83L352.13-0.83Q348.03 1.28 343.62 1.28L343.62 1.28L343.62 1.28Q339.20 1.28 336.61 0.32L336.61 0.32L336.61 0.32Q334.02-0.64 332.29-2.43L332.29-2.43L332.29-2.43Q328.90-5.82 328.90-12.03L328.90-12.03L328.90-12.03Q328.90-21.70 334.14-27.58L334.14-27.58L334.14-27.58Q339.78-33.92 349.57-33.92L349.57-33.92L349.57-33.92Q355.65-33.92 358.66-31.36L358.66-31.36L358.66-31.36Q360.90-29.44 360.90-26.30L360.90-26.30L360.90-26.30Q360.90-15.04 341.44-15.04L341.44-15.04L341.44-15.04Q341.18-13.38 341.18-11.97L341.18-11.97L341.18-11.97Q341.18-9.02 342.50-7.90L342.50-7.90L342.50-7.90Q343.81-6.78 346.24-6.78L346.24-6.78L346.24-6.78Q348.67-6.78 351.26-7.90L351.26-7.90L351.26-7.90Q353.86-9.02 354.94-10.82ZM341.89-17.79L341.89-17.79L341.89-17.79Q346.43-17.79 349.06-20.61L349.06-20.61L349.06-20.61Q351.68-23.30 351.68-27.58L351.68-27.58L351.68-27.58Q351.68-29.06 351.14-29.86L351.14-29.86L351.14-29.86Q350.59-30.66 349.50-30.66L349.50-30.66L349.50-30.66Q348.42-30.66 347.49-30.24L347.49-30.24L347.49-30.24Q346.56-29.82 345.60-28.42L345.60-28.42L345.60-28.42Q343.23-25.22 341.89-17.79Z" fill="url(#editing-outline-gradient)"></path></g></g><style>text {
  font-size: 64px;
  font-family: Arial Black;
  dominant-baseline: central;
  text-anchor: middle;
}</style></svg>